<svg id="Logo_Website" data-name="Logo Website" xmlns="http://www.w3.org/2000/svg" viewBox="0 0 197.14 51.99"><defs><style>.cls-1{fill:#000000;}.cls-2,.cls-3{fill:none;stroke:#000000;stroke-miterlimit:10;}.cls-3{stroke-width:2px;}</style></defs><g id="BOTTOM_Right_wihte" data-name="BOTTOM Right wihte"><path class="cls-1" d="M317.65,689.32a1.09,1.09,0,0,1-.75-.28.91.91,0,0,1-.33-.72,1,1,0,0,1,.33-.76,1.1,1.1,0,0,1,.75-.29h17.1a1.17,1.17,0,0,1,.8.29,1,1,0,0,1,.32.76,1,1,0,0,1-.32.74,1.26,1.26,0,0,1-.8.26Zm8.57,23.15a1.16,1.16,0,0,1-.83-.32,1.07,1.07,0,0,1-.32-.76V688.46h2.27v22.93a1,1,0,0,1-.33.76A1.09,1.09,0,0,1,326.22,712.47Z" transform="translate(-305.06 -687.24)"/><path class="cls-1" d="M341.56,687.27a1.14,1.14,0,0,1,.52.13,1.28,1.28,0,0,1,.45.34l9.94,14.91-1,0,10-14.87a1,1,0,0,1,1-.47,1,1,0,0,1,.74.31,1,1,0,0,1,.3.77v23a1,1,0,0,1-.34.76,1.17,1.17,0,0,1-.81.32,1.09,1.09,0,0,1-.79-.32,1,1,0,0,1-.33-.76V690.55l.65.07-9.11,13.79a.75.75,0,0,1-.34.34.94.94,0,0,1-.48.13,1,1,0,0,1-.49-.13,1,1,0,0,1-.38-.34l-9.14-13.93.68-.47v21.38a1.09,1.09,0,0,1-.3.76,1.06,1.06,0,0,1-.78.32,1,1,0,0,1-.75-.32,1.08,1.08,0,0,1-.29-.76v-23a1.12,1.12,0,0,1,.3-.74A1,1,0,0,1,341.56,687.27Z" transform="translate(-305.06 -687.24)"/><path class="cls-1" d="M371.33,712.47a1.07,1.07,0,0,1-.83-.32,1.17,1.17,0,0,1-.29-.79v-23a1.06,1.06,0,0,1,.33-.79,1.1,1.1,0,0,1,.83-.33,1.07,1.07,0,0,1,.79.33,1.09,1.09,0,0,1,.32.79v23a1.19,1.19,0,0,1-.36.79A1.09,1.09,0,0,1,371.33,712.47Zm16.49-25.12a1,1,0,0,1,.74.34,1.1,1.1,0,0,1,.3.74,1,1,0,0,1-.32.72l-16.35,15.33-.28-2.48L387,687.7A1.25,1.25,0,0,1,387.82,687.35Zm.39,25.27a1,1,0,0,1-.79-.4L377.2,699.37l1.69-1.69,10.3,13a1.35,1.35,0,0,1,.25.76,1,1,0,0,1-.42.86A1.41,1.41,0,0,1,388.21,712.62Z" transform="translate(-305.06 -687.24)"/><path class="cls-1" d="M434.26,687.27a10.14,10.14,0,0,1,4.64,1,9.27,9.27,0,0,1,3.3,2.79,12.45,12.45,0,0,1,1.94,4,17.68,17.68,0,0,1,.63,4.75,17.13,17.13,0,0,1-1.13,6.32,10.21,10.21,0,0,1-3.46,4.57,9.72,9.72,0,0,1-5.92,1.71h-9.18a1.06,1.06,0,0,1-.78-.32,1.09,1.09,0,0,1-.3-.76v-23a1.05,1.05,0,0,1,.3-.75,1,1,0,0,1,.78-.33Zm-.36,23.08a7.56,7.56,0,0,0,7.68-5.2,15.16,15.16,0,0,0,.89-5.28,16.27,16.27,0,0,0-.49-4,10.1,10.1,0,0,0-1.51-3.36,7.29,7.29,0,0,0-2.67-2.31,8.44,8.44,0,0,0-3.9-.84H426l.26-.29v21.6l-.22-.36Z" transform="translate(-305.06 -687.24)"/><path class="cls-1" d="M451,687.27h13.18a1.14,1.14,0,0,1,.79.31,1,1,0,0,1,.32.77.94.94,0,0,1-.32.76,1.17,1.17,0,0,1-.79.29H451.79l.36-.62V698.9l-.4-.47h10.77a1.07,1.07,0,0,1,.79.33,1,1,0,0,1,.32.75,1,1,0,0,1-.32.76,1.17,1.17,0,0,1-.79.29H451.83l.32-.36v10.36l-.18-.21h12.17a1.1,1.1,0,0,1,.79.32,1,1,0,0,1,.32.76,1,1,0,0,1-.32.76,1.16,1.16,0,0,1-.79.28H451a1,1,0,0,1-.77-.32,1.06,1.06,0,0,1-.31-.76v-23a1,1,0,0,1,.31-.75A1,1,0,0,1,451,687.27Z" transform="translate(-305.06 -687.24)"/><path class="cls-1" d="M488.55,687.24a1.16,1.16,0,0,1,.81.28,1,1,0,0,1,.3.76,1.26,1.26,0,0,1-.11.5l-9.61,23a1.25,1.25,0,0,1-.47.54,1.06,1.06,0,0,1-.57.18,1.11,1.11,0,0,1-.61-.18.86.86,0,0,1-.4-.5l-9.58-22.93a1.09,1.09,0,0,1-.1-.25,1,1,0,0,1,0-.29,1,1,0,0,1,.36-.8,1.15,1.15,0,0,1,.72-.28,1.12,1.12,0,0,1,1.08.79l9,21.53h-.65l8.86-21.6A1.1,1.1,0,0,1,488.55,687.24Z" transform="translate(-305.06 -687.24)"/><path class="cls-1" d="M362.76,739.22a5.77,5.77,0,0,1-2.37-.42,6.29,6.29,0,0,1-1.93-1.34,1,1,0,0,1-.15-.2.43.43,0,0,1-.07-.25.55.55,0,0,1,.18-.4.51.51,0,0,1,.38-.18.55.55,0,0,1,.4.18,4.75,4.75,0,0,0,1.59,1.15,4.56,4.56,0,0,0,1.92.4,4.15,4.15,0,0,0,1.54-.27,2.59,2.59,0,0,0,1.07-.77,1.87,1.87,0,0,0,.39-1.17,2,2,0,0,0-.46-1.34,3.52,3.52,0,0,0-1.17-.84,11.21,11.21,0,0,0-1.64-.6,14.84,14.84,0,0,1-1.42-.51,4.67,4.67,0,0,1-1.18-.68,2.88,2.88,0,0,1-.8-1,3.13,3.13,0,0,1-.29-1.42,3,3,0,0,1,.5-1.7,3.34,3.34,0,0,1,1.43-1.17,5,5,0,0,1,2.15-.43,5.94,5.94,0,0,1,2.05.36,3.58,3.58,0,0,1,1.55,1.06.84.84,0,0,1,.27.53.52.52,0,0,1-.18.37.57.57,0,0,1-.39.17.46.46,0,0,1-.31-.13,3.21,3.21,0,0,0-.77-.68,3.9,3.9,0,0,0-1-.45,4.21,4.21,0,0,0-1.18-.17,4.07,4.07,0,0,0-1.52.27,2.44,2.44,0,0,0-1.06.74,1.85,1.85,0,0,0-.39,1.19,1.75,1.75,0,0,0,.44,1.23,3.23,3.23,0,0,0,1.13.8c.47.21,1,.4,1.49.58a13.7,13.7,0,0,1,1.49.5,5.09,5.09,0,0,1,1.26.69,2.91,2.91,0,0,1,.86,1,3.54,3.54,0,0,1,.32,1.59,2.84,2.84,0,0,1-.52,1.65,3.65,3.65,0,0,1-1.44,1.17A5,5,0,0,1,362.76,739.22Z" transform="translate(-305.06 -687.24)"/><path class="cls-1" d="M373.18,729.63a6.08,6.08,0,0,1,1.59.19,3.28,3.28,0,0,1,1.16.51.91.91,0,0,1,.44.7.54.54,0,0,1-.13.35.37.37,0,0,1-.34.17.68.68,0,0,1-.37-.09,1.59,1.59,0,0,1-.26-.26.94.94,0,0,0-.38-.26,2.66,2.66,0,0,0-.67-.21,5.89,5.89,0,0,0-1-.08,3.35,3.35,0,0,0-1.82.51,3.54,3.54,0,0,0-1.28,1.35,3.89,3.89,0,0,0-.47,1.91,4.14,4.14,0,0,0,.45,1.94,3.42,3.42,0,0,0,1.25,1.36,3.38,3.38,0,0,0,1.85.49,4.06,4.06,0,0,0,1.11-.12,3.27,3.27,0,0,0,.67-.29,1.6,1.6,0,0,0,.51-.39.53.53,0,0,1,.41-.19.44.44,0,0,1,.35.14.51.51,0,0,1,.12.35.92.92,0,0,1-.43.64,3.68,3.68,0,0,1-1.16.61,5,5,0,0,1-1.71.26,4.3,4.3,0,0,1-3.93-2.35,5.18,5.18,0,0,1-.57-2.45,5.07,5.07,0,0,1,.58-2.4,4.52,4.52,0,0,1,1.6-1.73A4.38,4.38,0,0,1,373.18,729.63Z" transform="translate(-305.06 -687.24)"/><path class="cls-1" d="M379,739a.54.54,0,0,1-.41-.16.54.54,0,0,1-.15-.38v-8.06a.51.51,0,0,1,.16-.38.54.54,0,0,1,.4-.16.49.49,0,0,1,.38.16.51.51,0,0,1,.16.38v2.7l-.27.05a4.09,4.09,0,0,1,.31-1.25,4.53,4.53,0,0,1,.71-1.14,3.6,3.6,0,0,1,1.08-.85,3,3,0,0,1,1.39-.32,1.51,1.51,0,0,1,.63.13.47.47,0,0,1,.31.44.57.57,0,0,1-.15.42.48.48,0,0,1-.34.14.83.83,0,0,1-.35-.09,1.18,1.18,0,0,0-.5-.09,1.93,1.93,0,0,0-1,.3,3.3,3.3,0,0,0-.92.8,4,4,0,0,0-.66,1.13,3.43,3.43,0,0,0-.24,1.25v4.44a.55.55,0,0,1-.16.38A.52.52,0,0,1,379,739Z" transform="translate(-305.06 -687.24)"/><path class="cls-1" d="M389.15,739.22a5,5,0,0,1-2.45-.59,4.18,4.18,0,0,1-1.65-1.66,5,5,0,0,1-.6-2.48,5.19,5.19,0,0,1,.61-2.61,4.42,4.42,0,0,1,1.56-1.67,3.85,3.85,0,0,1,2-.58,4.24,4.24,0,0,1,1.54.28,3.94,3.94,0,0,1,1.34.82,4.22,4.22,0,0,1,.93,1.35,4.88,4.88,0,0,1,.39,1.83.53.53,0,0,1-.18.37.55.55,0,0,1-.38.15h-7.22l-.21-1H392l-.24.22v-.36a2.68,2.68,0,0,0-.55-1.43A3.27,3.27,0,0,0,390,731a3.17,3.17,0,0,0-1.38-.32,3.12,3.12,0,0,0-2.13.89,3.8,3.8,0,0,0-.75,1.17,4.57,4.57,0,0,0-.28,1.69,4.2,4.2,0,0,0,.43,1.92,3.31,3.31,0,0,0,1.25,1.37,3.63,3.63,0,0,0,1.95.5,3.31,3.31,0,0,0,1.13-.18,3.22,3.22,0,0,0,.88-.47,3.8,3.8,0,0,0,.64-.62.61.61,0,0,1,.38-.17.43.43,0,0,1,.33.15.44.44,0,0,1,.13.32.49.49,0,0,1-.18.38,4.86,4.86,0,0,1-1.4,1.13A4,4,0,0,1,389.15,739.22Z" transform="translate(-305.06 -687.24)"/><path class="cls-1" d="M399.32,739.22a5,5,0,0,1-2.45-.59,4.18,4.18,0,0,1-1.65-1.66,5,5,0,0,1-.6-2.48,5.19,5.19,0,0,1,.61-2.61,4.42,4.42,0,0,1,1.56-1.67,3.85,3.85,0,0,1,2-.58,4.24,4.24,0,0,1,1.54.28,3.94,3.94,0,0,1,1.34.82,4.22,4.22,0,0,1,.93,1.35,4.88,4.88,0,0,1,.39,1.83.53.53,0,0,1-.18.37.55.55,0,0,1-.38.15h-7.22l-.21-1h7.09l-.24.22v-.36a2.68,2.68,0,0,0-.55-1.43,3.27,3.27,0,0,0-1.13-.9,3.17,3.17,0,0,0-1.38-.32,3.12,3.12,0,0,0-2.13.89,3.8,3.8,0,0,0-.75,1.17,4.57,4.57,0,0,0-.28,1.69,4.2,4.2,0,0,0,.43,1.92,3.31,3.31,0,0,0,1.25,1.37,3.63,3.63,0,0,0,1.95.5,3.31,3.31,0,0,0,1.13-.18,3.22,3.22,0,0,0,.88-.47,3.8,3.8,0,0,0,.64-.62.61.61,0,0,1,.38-.17.43.43,0,0,1,.33.15.44.44,0,0,1,.13.32.49.49,0,0,1-.18.38,4.86,4.86,0,0,1-1.4,1.13A4,4,0,0,1,399.32,739.22Z" transform="translate(-305.06 -687.24)"/><path class="cls-1" d="M409.67,729.63a3.36,3.36,0,0,1,1.9.48,2.67,2.67,0,0,1,1,1.29,5,5,0,0,1,.32,1.81v5.29a.51.51,0,0,1-.16.38.52.52,0,0,1-.38.16.54.54,0,0,1-.41-.16.54.54,0,0,1-.15-.38v-5.24a3.68,3.68,0,0,0-.23-1.31,2,2,0,0,0-.76-.94,2.4,2.4,0,0,0-1.38-.36A3.13,3.13,0,0,0,408,731a3.05,3.05,0,0,0-1.13.94,2.23,2.23,0,0,0-.43,1.31v5.24a.55.55,0,0,1-.94.38.55.55,0,0,1-.16-.38v-8.06a.56.56,0,0,1,.56-.54.5.5,0,0,1,.39.16.54.54,0,0,1,.15.38V732l-.41.65a2.22,2.22,0,0,1,.37-1.11,3.8,3.8,0,0,1,.85-1,4.33,4.33,0,0,1,1.16-.67A3.68,3.68,0,0,1,409.67,729.63Z" transform="translate(-305.06 -687.24)"/><path class="cls-1" d="M427.87,738a.54.54,0,0,1,.39.15.5.5,0,0,1,.17.37.51.51,0,0,1-.17.39.54.54,0,0,1-.39.15h-6.41a.5.5,0,0,1-.39-.16.54.54,0,0,1-.15-.38V727a.52.52,0,0,1,.16-.38.61.61,0,0,1,.42-.16.57.57,0,0,1,.38.16.5.5,0,0,1,.17.38v11.31l-.34-.31Z" transform="translate(-305.06 -687.24)"/><path class="cls-1" d="M430.73,728.48a.86.86,0,0,1-.57-.17.67.67,0,0,1-.19-.5v-.18a.58.58,0,0,1,.21-.49.85.85,0,0,1,.57-.18.74.74,0,0,1,.53.18.63.63,0,0,1,.19.49v.18a.67.67,0,0,1-.19.5A.82.82,0,0,1,430.73,728.48Zm.54,10a.51.51,0,0,1-.16.38.52.52,0,0,1-.38.16.51.51,0,0,1-.4-.16.57.57,0,0,1-.14-.38v-8.28a.55.55,0,0,1,.15-.38.53.53,0,0,1,.39-.16.53.53,0,0,1,.54.54Z" transform="translate(-305.06 -687.24)"/><path class="cls-1" d="M438.09,730a.51.51,0,0,1,.51.51.5.5,0,0,1-.51.5h-4.41a.51.51,0,0,1-.5-.5.47.47,0,0,1,.15-.37.52.52,0,0,1,.35-.14Zm-.68-4.23a3.09,3.09,0,0,1,.58.06,1.39,1.39,0,0,1,.55.2.43.43,0,0,1,.24.39.5.5,0,0,1-.15.37.42.42,0,0,1-.32.15,1.27,1.27,0,0,1-.45-.1,1.4,1.4,0,0,0-.58-.11,1.23,1.23,0,0,0-.65.17,1.14,1.14,0,0,0-.41.48,1.83,1.83,0,0,0-.14.77V738.5a.55.55,0,0,1-.16.38.49.49,0,0,1-.38.16.5.5,0,0,1-.39-.16.54.54,0,0,1-.15-.38V728.17a2.23,2.23,0,0,1,.67-1.76A2.49,2.49,0,0,1,437.41,725.79Z" transform="translate(-305.06 -687.24)"/><path class="cls-1" d="M444.05,739.22a5,5,0,0,1-2.45-.59,4.27,4.27,0,0,1-1.66-1.66,5.05,5.05,0,0,1-.59-2.48,5.3,5.3,0,0,1,.6-2.61,4.52,4.52,0,0,1,1.57-1.67,3.85,3.85,0,0,1,2-.58,4.28,4.28,0,0,1,1.54.28,3.9,3.9,0,0,1,1.33.82,4.09,4.09,0,0,1,.94,1.35,5.08,5.08,0,0,1,.39,1.83.57.57,0,0,1-.18.37.55.55,0,0,1-.38.15H440l-.22-1h7.1l-.24.22v-.36a2.61,2.61,0,0,0-.56-1.43,3.2,3.2,0,0,0-2.5-1.22,2.92,2.92,0,0,0-1.1.22,3,3,0,0,0-1,.67,3.63,3.63,0,0,0-.75,1.17,4.56,4.56,0,0,0-.29,1.69,4.21,4.21,0,0,0,.44,1.92,3.31,3.31,0,0,0,1.25,1.37,3.58,3.58,0,0,0,1.95.5,3.31,3.31,0,0,0,1.13-.18,3.22,3.22,0,0,0,.88-.47,3.8,3.8,0,0,0,.64-.62.59.59,0,0,1,.37-.17.43.43,0,0,1,.34.15.44.44,0,0,1,.13.32.49.49,0,0,1-.18.38,5,5,0,0,1-1.4,1.13A4,4,0,0,1,444.05,739.22Z" transform="translate(-305.06 -687.24)"/><line class="cls-2" x1="151.51" y1="45.89" x2="197.14" y2="45.89"/><line class="cls-2" y1="45.89" x2="45.63" y2="45.89"/><line class="cls-3" y1="31.37" x2="197.14" y2="31.37"/><line class="cls-2" x1="95.65" y1="12.43" x2="106.17" y2="12.43"/></g></svg>