<svg id="Sign_cutted" data-name="Sign cutted" xmlns="http://www.w3.org/2000/svg" viewBox="0 0 442.41 441.5"><defs><style>.cls-1{fill:#130b17;}</style></defs><path class="cls-1" d="M333.24,200H207.71q-2.73,5.78-5.13,11.73l61.31,85.79,69.35-97Z" transform="translate(-186.62 -73.11)"/><path class="cls-1" d="M447.75,200H427.8V514.62q10.11-.92,19.95-2.7Z" transform="translate(-186.62 -73.11)"/><path class="cls-1" d="M500,328.05l77.56,108.07a221.46,221.46,0,0,0,36.43-222Z" transform="translate(-186.62 -73.11)"/><path class="cls-1" d="M377.49,513.44V200H355.8V509.35A218.4,218.4,0,0,0,377.49,513.44Z" transform="translate(-186.62 -73.11)"/><path class="cls-1" d="M333.24,245.08l-69.31,97,0-.05,0,.05-71.13-99.52a221.91,221.91,0,0,0-6.11,51.77c0,96,61.16,177.69,146.62,208.3Z" transform="translate(-186.62 -73.11)"/><polygon class="cls-1" points="283.68 126.86 283.68 245.55 402.38 126.86 283.68 126.86"/><path class="cls-1" d="M575.18,149.66a221.2,221.2,0,0,0-334.7,0Z" transform="translate(-186.62 -73.11)"/><path class="cls-1" d="M480,348.1l-9.69,9.68V506.56A220.8,220.8,0,0,0,558,456.75Z" transform="translate(-186.62 -73.11)"/></svg>